<svg width="70" height="40" viewBox="0 0 70 40" fill="none" xmlns="http://www.w3.org/2000/svg">
<g clip-path="url(#clip0_1_152)">
<path fill-rule="evenodd" clip-rule="evenodd" d="M55.495 0V30.074H48.359V1.504L55.495 0ZM35.178 32.924C37.148 32.924 38.746 34.508 38.746 36.462C38.746 38.416 37.148 40 35.178 40C33.208 40 31.61 38.416 31.61 36.462C31.61 34.508 33.207 32.924 35.178 32.924ZM35.178 8.541C41.253 8.541 46.188 13.425 46.188 19.459C46.188 25.494 41.253 30.379 35.178 30.379C29.093 30.379 24.168 25.494 24.168 19.459C24.168 13.425 29.103 8.541 35.178 8.541ZM35.178 22.997C37.15 22.997 38.746 21.415 38.746 19.459C38.746 17.504 37.15 15.921 35.178 15.921C33.206 15.921 31.61 17.504 31.61 19.459C31.61 21.415 33.206 22.997 35.178 22.997ZM12.73 22.997C13.96 22.997 14.96 22.005 14.96 20.787C14.9569 20.1982 14.7203 19.6347 14.3023 19.22C13.8842 18.8054 13.3188 18.5734 12.73 18.575H7.37903V22.997H12.73ZM7.37903 7.077V11.499H11.343C12.572 11.499 13.573 10.506 13.573 9.287C13.5693 8.69855 13.3326 8.13555 12.9146 7.72132C12.4966 7.30709 11.9315 7.0754 11.343 7.077H7.37903ZM19.301 14.172C21.025 15.862 22.096 18.202 22.086 20.786C22.086 25.916 17.894 30.074 12.72 30.074H0.233032V0H11.333C16.506 0 20.698 4.157 20.698 9.287C20.698 11.077 20.193 12.757 19.301 14.172ZM68.973 16.02H65.415V21.573C65.415 23.253 65.96 24.491 67.387 24.491C68.309 24.491 68.983 24.285 68.983 24.285V29.494C68.983 29.494 67.506 30.378 65.504 30.378H65.415C65.325 30.378 65.247 30.368 65.157 30.368H65.088C65.048 30.368 64.998 30.358 64.959 30.358C60.975 30.152 58.269 27.666 58.269 23.351V5.041L65.405 3.538V8.943H68.973V16.02Z" fill="#34D186"/>
</g>
<defs>
<clipPath id="clip0_1_152">
<rect width="69" height="40" fill="white" transform="translate(0.233032)"/>
</clipPath>
</defs>
</svg>
