<svg width="115" height="32" viewBox="0 0 115 32" fill="none" xmlns="http://www.w3.org/2000/svg">
<g clip-path="url(#clip0_424_580)">
<path fill-rule="evenodd" clip-rule="evenodd" d="M19.8543 0.00018169C19.1027 0.00018169 18.3818 0.305614 17.8503 0.849287C17.3188 1.39296 17.0202 2.13034 17.0202 2.89921V9.67767C16.614 9.43232 16.1932 9.21315 15.7603 9.02143C14.4556 8.45294 13.056 8.14691 11.638 8.1201H11.0789C9.66184 8.14052 8.262 8.44122 6.95659 9.00562C6.52261 9.19178 6.1009 9.40659 5.69413 9.64868V2.87022C5.69413 2.10135 5.39554 1.36397 4.86404 0.820297C4.33255 0.276624 3.61168 -0.0288086 2.86003 -0.0288086C2.10838 -0.0288086 1.38752 0.276624 0.856023 0.820297C0.324527 1.36397 0.0259353 2.10135 0.0259353 2.87022L0.000170751 20.0536C-0.038189 22.116 0.443639 24.1537 1.39918 25.9702L1.49967 26.1652C1.51139 26.1866 1.52528 26.2108 1.54021 26.2368C1.57121 26.2908 1.60665 26.3525 1.63622 26.413C2.82991 28.5415 4.68557 30.2004 6.90764 31.1252C7.85846 31.5246 8.85774 31.7906 9.87829 31.9158C10.1617 31.9501 10.4477 31.9738 10.7388 31.9896H11.3237H11.875C12.1492 31.9896 12.4188 31.9569 12.686 31.9245C12.7025 31.9225 12.7191 31.9205 12.7356 31.9185C13.113 31.8743 13.488 31.8101 13.8589 31.7261C15.3397 31.3979 16.7382 30.7603 17.9667 29.8532C19.1952 28.9462 20.2273 27.7893 20.9983 26.4551C21.0081 26.4378 21.0179 26.4206 21.0278 26.4034C21.0642 26.3396 21.1003 26.2765 21.1348 26.21C21.1786 26.1257 21.2044 26.0783 21.2404 26.0124C21.4303 25.6507 21.6023 25.2795 21.7557 24.9002C22.3632 23.3772 22.6679 21.7458 22.6523 20.101L22.6833 2.89394C22.6819 2.12781 22.3841 1.39337 21.855 0.851138C21.3259 0.308905 20.6084 0.00296638 19.8595 0.00018169H19.8543ZM16.4896 22.5152C16.2089 23.2346 15.7971 23.8928 15.2761 24.4549C14.7626 25.0024 14.1501 25.4428 13.4726 25.7516C13.3335 25.8148 13.1892 25.8755 13.0449 25.9255L11.3754 27.6228L9.79085 25.9861C9.5722 25.9182 9.35794 25.8364 9.14931 25.741C8.47575 25.4239 7.86857 24.9765 7.36126 24.4233C6.8507 23.857 6.44946 23.1971 6.17866 22.4783C5.87704 21.7059 5.72732 20.8801 5.73809 20.0484C5.73852 19.7292 5.7609 19.4104 5.80508 19.0944C5.87558 18.6424 5.99661 18.2003 6.16578 17.7766C6.44536 17.0544 6.8494 16.3894 7.35868 15.8132C7.87232 15.2475 8.48376 14.7837 9.1622 14.4454C9.66242 14.1945 10.201 14.0332 10.7544 13.9684L11.0121 13.9473H11.6871L11.9448 13.9684C12.5037 14.0364 13.0468 14.2031 13.5499 14.4612C14.2244 14.8007 14.8302 15.2675 15.3354 15.8369C15.8469 16.4129 16.2519 17.079 16.5309 17.803C17.1481 19.6582 16.7606 21.7175 16.4896 22.5152Z" fill="#1E9AF1"/>
<path d="M31.2077 15.8523C31.6488 14.757 32.2927 13.7592 33.104 12.9138C33.9057 12.0807 34.8623 11.4203 35.9175 10.9714C37.0162 10.5044 38.1956 10.2687 39.3854 10.2783C39.7996 10.2813 40.2126 10.3227 40.6195 10.4022C41.0365 10.4831 41.4459 10.6003 41.8433 10.7527C42.2336 10.8989 42.6048 11.0936 42.9486 11.3325C43.2767 11.5593 43.5702 11.8347 43.8194 12.1495V3.97949H48.2664V19.5631C48.2819 20.839 48.0444 22.105 47.5682 23.2844C46.9006 24.9348 45.7645 26.3426 44.3068 27.3259C42.849 28.3092 41.1365 28.8228 39.3905 28.8004C38.2027 28.8104 37.0245 28.5821 35.9226 28.1284C34.8646 27.7022 33.9009 27.0632 33.0885 26.2493C32.2738 25.4153 31.6285 24.4247 31.1897 23.3345C30.7133 22.1413 30.4759 20.8624 30.4914 19.5736C30.4787 18.2983 30.7179 17.0334 31.1948 15.855L31.2077 15.8523ZM35.33 21.4422C35.5492 22.0012 35.871 22.512 36.2782 22.947C36.6794 23.3732 37.1581 23.7152 37.6875 23.9538C38.2271 24.1963 38.8101 24.3215 39.3995 24.3215C39.989 24.3215 40.572 24.1963 41.1116 23.9538C41.6369 23.7134 42.1119 23.3716 42.5106 22.947C42.9155 22.5122 43.234 22.0012 43.4484 21.4422C43.6825 20.8438 43.8015 20.2049 43.7988 19.5605C43.8001 18.9496 43.6846 18.3444 43.4587 17.7789C43.2357 17.2172 42.9144 16.7019 42.5106 16.2582C42.1087 15.8205 41.6308 15.4631 41.1013 15.204C40.5678 14.9376 39.9816 14.8006 39.3879 14.8034C38.7987 14.8003 38.2153 14.9223 37.6746 15.1618C37.146 15.3969 36.668 15.7363 36.2679 16.1607C35.8621 16.5933 35.5411 17.1015 35.3223 17.6576C34.8569 18.8724 34.8569 20.2221 35.3223 21.4369L35.33 21.4422Z" fill="#212327"/>
<path d="M56.8549 6.183C56.8573 6.58295 56.7774 6.97894 56.6205 7.34525C56.4679 7.6982 56.25 8.01768 55.9789 8.28612C55.703 8.55732 55.3808 8.7744 55.0282 8.92654C54.3056 9.2391 53.4918 9.24847 52.7625 8.95262C52.0332 8.65678 51.4469 8.07945 51.1301 7.34525C50.9745 6.97888 50.8943 6.58373 50.8943 6.18432C50.8943 5.78491 50.9745 5.38976 51.1301 5.02339C51.4341 4.30625 51.9999 3.73887 52.7068 3.4421C53.0743 3.28595 53.4683 3.20557 53.8662 3.20557C54.2642 3.20557 54.6582 3.28595 55.0257 3.4421C55.3786 3.59355 55.7009 3.8107 55.9764 4.08252C56.2502 4.35163 56.4684 4.67427 56.6179 5.0313C56.7752 5.39387 56.856 5.78632 56.8549 6.183ZM56.082 28.4739H51.6273V10.9453H56.0923L56.082 28.4739Z" fill="#212327"/>
<path d="M63.9074 28.4634H59.4424V3.98242H63.9074V28.4634Z" fill="#212327"/>
<path d="M71.7253 28.4634H67.2603V3.98242H71.7253V28.4634Z" fill="#212327"/>
<path d="M92.4547 19.5634C92.4706 20.8513 92.2331 22.1294 91.7565 23.3216C91.3183 24.4121 90.6729 25.4029 89.8577 26.2364C89.0526 27.0534 88.0948 27.696 87.0416 28.1261C85.9406 28.58 84.7633 28.8083 83.5763 28.7981C81.8301 28.8262 80.116 28.3165 78.6568 27.3351C77.1975 26.3538 76.0605 24.9462 75.3935 23.2952C74.9176 22.1156 74.6792 20.8499 74.6927 19.5739V3.98242H79.1422V12.1682C79.3905 11.8534 79.6831 11.5781 80.0105 11.3512C80.3544 11.1097 80.7255 10.9115 81.1158 10.7609C81.5142 10.6089 81.9244 10.4916 82.3422 10.4104C82.7488 10.3296 83.162 10.2882 83.5763 10.2865C84.7653 10.279 85.9436 10.5156 87.0416 10.9823C88.0957 11.4299 89.0527 12.0864 89.8577 12.9141C90.6694 13.7572 91.3149 14.7521 91.7591 15.8447C92.2348 17.0233 92.4715 18.2884 92.4547 19.5634ZM87.9897 19.5634C87.9974 18.9153 87.8791 18.2721 87.6419 17.6711C87.4222 17.1095 87.0995 16.596 86.6912 16.1583C86.29 15.7328 85.8101 15.3933 85.2793 15.1595C84.7387 14.9198 84.1552 14.7977 83.566 14.8011C82.9727 14.799 82.387 14.938 81.8552 15.2069C81.3256 15.466 80.8478 15.8235 80.4459 16.2611C80.0452 16.7053 79.7274 17.2206 79.5081 17.7818C79.2825 18.3464 79.1669 18.9508 79.168 19.5607C79.1615 20.2046 79.277 20.8436 79.5081 21.4425C79.7178 21.9992 80.0332 22.508 80.436 22.9395C80.8389 23.371 81.3212 23.7167 81.8552 23.9567C82.3948 24.1992 82.9778 24.3245 83.5673 24.3245C84.1567 24.3245 84.7397 24.1992 85.2793 23.9567C85.8081 23.7172 86.2867 23.3754 86.6886 22.95C87.0958 22.5134 87.4184 22.0019 87.6393 21.4425C87.8764 20.846 87.9955 20.2073 87.9897 19.5634Z" fill="#212327"/>
<path d="M100.1 6.1833C100.102 6.58324 100.023 6.97923 99.8656 7.34554C99.7129 7.69915 99.4941 8.01878 99.2215 8.28641C98.9468 8.55796 98.6253 8.7751 98.2733 8.92683C97.9059 9.08298 97.5118 9.16337 97.1139 9.16337C96.716 9.16337 96.322 9.08298 95.9545 8.92683C95.2495 8.62702 94.6847 8.06062 94.3777 7.34554C94.2217 6.97978 94.1411 6.58501 94.1411 6.18593C94.1411 5.78686 94.2217 5.39208 94.3777 5.02632C94.6822 4.3095 95.2479 3.74227 95.9545 3.44503C96.322 3.28888 96.716 3.2085 97.1139 3.2085C97.5118 3.2085 97.9059 3.28888 98.2733 3.44503C98.6259 3.59717 98.9481 3.81425 99.224 4.08545C99.4967 4.35561 99.7146 4.67799 99.8656 5.03423C100.022 5.39619 100.102 5.78769 100.1 6.1833ZM99.3271 28.4742H94.8724V10.9456H99.3374L99.3271 28.4742Z" fill="#212327"/>
<path d="M107.128 28.4634H102.663V3.98242H107.128V28.4634Z" fill="#212327"/>
<path d="M114.972 28.4634H110.507V3.98242H114.972V28.4634Z" fill="#212327"/>
</g>
<defs>
<clipPath id="clip0_424_580">
<rect width="114.972" height="32" fill="white"/>
</clipPath>
</defs>
</svg>
