<svg width="24" height="24" viewBox="0 0 24 24" fill="none" xmlns="http://www.w3.org/2000/svg">
<path d="M9.65349 2.00172C8.92895 2.04386 8.24794 2.62344 8.28044 3.49781C8.31544 4.43781 7.4553 5.15965 6.5363 4.96265C5.1663 4.66865 4.22425 6.30256 5.16325 7.34156C5.79425 8.03856 5.59972 9.1418 4.76872 9.5818C3.53072 10.2368 3.85828 12.0949 5.24528 12.2869C6.17728 12.4159 6.73795 13.3885 6.38395 14.2595C6.20032 14.7115 6.26529 15.1476 6.46599 15.4998L4.7277 18.4978C4.63952 18.6498 4.59294 18.8224 4.59267 18.9981C4.59241 19.1739 4.63846 19.3466 4.72618 19.4989C4.81391 19.6512 4.94022 19.7776 5.09238 19.8656C5.24454 19.9535 5.41719 19.9998 5.59294 19.9998H7.35661V20.0017L8.05778 21.5388C8.13339 21.7047 8.25289 21.8467 8.40335 21.9495C8.55381 22.0524 8.72952 22.1122 8.91149 22.1224C9.09346 22.1327 9.27477 22.093 9.43584 22.0077C9.5969 21.9224 9.7316 21.7947 9.82536 21.6384L11.9836 18.0408L14.1418 21.6384C14.2355 21.7947 14.3702 21.9224 14.5313 22.0077C14.6924 22.093 14.8737 22.1327 15.0556 22.1224C15.2376 22.1122 15.4133 22.0524 15.5638 21.9495C15.7142 21.8467 15.8337 21.7047 15.9093 21.5388L16.6105 19.9998H18.3742C18.5499 19.9998 18.7226 19.9535 18.8747 19.8656C19.0269 19.7776 19.1532 19.6512 19.2409 19.4989C19.3287 19.3466 19.3747 19.1739 19.3745 18.9981C19.3742 18.8224 19.3276 18.6498 19.2394 18.4978L17.5187 15.531C17.7337 15.174 17.8056 14.7248 17.6164 14.2595C17.2624 13.3885 17.823 12.4159 18.755 12.2869C20.141 12.0949 20.4677 10.2368 19.2297 9.5818C18.3987 9.1418 18.2041 8.03856 18.8351 7.34156C19.7741 6.30256 18.8311 4.66865 17.4621 4.96265C16.5421 5.16065 15.6829 4.43781 15.7179 3.49781C15.7699 2.09881 13.9979 1.45531 13.1379 2.56031C12.5599 3.30231 11.4375 3.30231 10.8605 2.56031C10.538 2.14594 10.0882 1.97643 9.65349 2.00172ZM14.5832 7.12476C14.8392 7.12476 15.0952 7.22273 15.2902 7.41773C15.6802 7.80773 15.6802 8.43984 15.2902 8.82984L12.1672 11.9529C11.7932 12.3269 11.1901 12.344 10.7941 11.99L9.24528 10.6052C8.81828 10.2222 8.80022 9.56006 9.20622 9.15406L9.23942 9.12086C9.59942 8.75986 10.1735 8.72859 10.5715 9.04859L11.4992 9.79469L13.8761 7.41773C14.0711 7.22273 14.3272 7.12476 14.5832 7.12476ZM9.11638 15.8084C9.68684 15.7545 10.2533 16.0526 10.5285 16.5837L9.05778 19.033C8.70428 18.4184 8.07607 17.9998 7.35661 17.9998H7.32927L8.47185 16.031C8.47711 16.0278 8.48222 16.0265 8.48747 16.0232C8.68672 15.8982 8.90097 15.8287 9.11638 15.8084ZM14.884 15.8084C15.0892 15.8277 15.2923 15.8954 15.4836 16.0095L16.6379 17.9998H16.6105C15.8919 17.9998 15.263 18.4171 14.9093 19.033L13.4582 16.615C13.7271 16.0647 14.3027 15.7535 14.884 15.8084Z" fill="#00B654"/>
</svg>
