<svg width="24" height="24" viewBox="0 0 24 24" fill="none" xmlns="http://www.w3.org/2000/svg">
<path d="M12 3C7.59356 3 4 6.59356 4 11V12C2.9 12 2 12.9 2 14V16C2 17.1 2.9 18 4 18H6V13V12V11C6 7.67444 8.67444 5 12 5C15.3256 5 18 7.67444 18 11V12V13V18V19H13.9121C13.8088 18.7079 13.6176 18.4549 13.3648 18.2759C13.1119 18.0968 12.8098 18.0004 12.5 18C12.1022 18 11.7206 18.158 11.4393 18.4393C11.158 18.7206 11 19.1022 11 19.5C11.0005 19.8789 11.1444 20.2435 11.4027 20.5207C11.661 20.7979 12.0147 20.967 12.3926 20.9941C12.4283 20.998 12.4641 21 12.5 21H18C19.0931 21 20 20.0931 20 19V18C21.1 18 22 17.1 22 16V14C22 12.9 21.1 12 20 12V11C20 6.59356 16.4064 3 12 3Z" fill="#FFDA1C"/>
</svg>
