<svg width="170" height="40" viewBox="0 0 170 40" fill="none" xmlns="http://www.w3.org/2000/svg">
<g clip-path="url(#clip0_1_185)">
<path d="M15.6298 0V33.6334C13.6152 33.4712 11.7691 32.9588 10.0849 32.1284C8.41361 33.1274 6.56746 33.6334 4.53994 33.6334C3.19905 33.6334 1.68975 33.4193 0.510803 32.9134C1.85169 31.0646 3.03712 28.937 3.54237 26.5759C1.69622 23.7088 0.517281 20.3357 0.517281 16.8134C0.523759 8.07592 7.24115 0.83678 15.6298 0Z" fill="#192C6A"/>
<path d="M34.1041 16.82C34.1041 25.564 27.3867 32.8031 18.9981 33.6398V30.2798C25.7155 29.443 30.7551 23.7283 30.7551 16.8329C30.7551 9.93759 25.5535 4.22283 18.9981 3.38605V0C27.3867 0.83678 34.1041 8.0759 34.1041 16.82Z" fill="#24D05E"/>
<path d="M61.4852 11.8964C60.7274 10.3267 59.665 9.08771 58.2916 8.18606C56.9249 7.27145 55.3184 6.81738 53.4528 6.81738C51.5807 6.81738 50.0002 7.27793 48.724 8.18606C48.4715 8.3677 48.2254 8.56229 47.9921 8.77636V7.36226H44.1055V35.8711H48.5427V26.1022C48.6204 26.1607 48.6983 26.2191 48.7824 26.2774C50.0844 27.1919 51.6974 27.6462 53.6212 27.6462C55.435 27.6462 57.0156 27.1855 58.3629 26.2774C59.7103 25.3629 60.7597 24.1174 61.5047 22.5475C62.2497 20.9777 62.6188 19.2004 62.6188 17.2285C62.6188 15.2371 62.2431 13.4533 61.4852 11.8964ZM57.4173 20.5237C57.0674 21.4967 56.5168 22.2751 55.7718 22.846C55.0269 23.4167 54.0877 23.7022 52.9411 23.7022C51.7622 23.7022 50.8034 23.4362 50.0715 22.8979C49.3525 22.3465 48.8277 21.5875 48.4844 20.6146C48.1541 19.6415 47.9921 18.5128 47.9921 17.2349C47.9921 15.9441 48.1541 14.8154 48.4844 13.8554C48.8277 12.8824 49.346 12.1235 50.052 11.5916C50.7581 11.0402 51.6715 10.7678 52.7921 10.7678C53.971 10.7678 54.9427 11.0597 55.7136 11.6435C56.4779 12.2143 57.048 12.9927 57.4107 13.9852C57.7735 14.9581 57.9614 16.0414 57.9614 17.2349C57.9614 18.4415 57.7799 19.5377 57.4173 20.5237Z" fill="#192C6A"/>
<path d="M81.2235 12.6294C81.1521 11.8964 80.9384 11.1829 80.5822 10.4888C79.9345 9.18502 78.9434 8.24444 77.6088 7.67361C76.2809 7.10279 74.7457 6.81738 72.9903 6.81738C70.6649 6.81738 68.8186 7.32333 67.4389 8.33525C66.0786 9.34719 65.1523 10.6834 64.6664 12.357L68.6826 13.6154C69.013 12.6035 69.5895 11.89 70.4186 11.4748C71.2478 11.0597 72.1029 10.8521 72.9903 10.8521C74.4607 10.8521 75.5102 11.1764 76.132 11.8186C76.6502 12.357 76.9482 13.1419 77.0259 14.1733C76.2292 14.2965 75.4518 14.4068 74.694 14.5171C73.4502 14.6857 72.2971 14.8738 71.2283 15.0814C70.166 15.289 69.2462 15.5225 68.4559 15.7755C67.4065 16.1258 66.5579 16.5863 65.8973 17.1442C65.2429 17.6956 64.7507 18.3506 64.4397 19.1161C64.1222 19.8686 63.9669 20.7248 63.9669 21.6718C63.9669 22.7551 64.213 23.7477 64.7118 24.6493C65.2236 25.551 65.9685 26.2774 66.9596 26.8224C67.9442 27.3543 69.149 27.6267 70.5741 27.6267C72.349 27.6267 73.8259 27.2958 75.0049 26.6407C75.9247 26.1217 76.7473 25.3822 77.4859 24.4222V27.0817H81.3336V14.9646C81.3336 14.1343 81.3012 13.343 81.2235 12.6294ZM76.9158 18.9539C76.8898 19.6739 76.7669 20.3096 76.5336 20.8739C76.3845 21.3215 76.0996 21.8081 75.6786 22.3141C75.264 22.8265 74.7069 23.261 74.0007 23.6115C73.2948 23.9617 72.4397 24.1434 71.4421 24.1434C70.749 24.1434 70.166 24.0329 69.6931 23.8124C69.2333 23.5919 68.8769 23.3 68.6373 22.9367C68.3912 22.5605 68.268 22.126 68.268 21.6394C68.268 21.2113 68.3588 20.8415 68.5401 20.5237C68.7345 20.2058 69.0065 19.927 69.3627 19.687C69.7126 19.4404 70.1465 19.2263 70.6583 19.0447C71.1831 18.8761 71.7854 18.7204 72.4655 18.5906C73.1457 18.4415 73.9619 18.2923 74.9077 18.1301C75.5166 18.0263 76.1968 17.9161 76.9611 17.7928C76.9546 18.1301 76.9417 18.5128 76.9158 18.9539Z" fill="#192C6A"/>
<path d="M101.226 7.3623L90.2399 35.8712H86.1136L89.3524 26.965L81.3848 7.3623H85.9647L91.4706 21.4903L96.8278 7.3623H101.226Z" fill="#192C6A"/>
<path d="M130.81 13.9984V27.1014H126.412V15.1141C126.412 13.7648 126.075 12.7075 125.408 11.9551C124.74 11.1896 123.833 10.8004 122.687 10.8004C121.981 10.8004 121.346 10.9626 120.789 11.2934C120.232 11.6113 119.785 12.0848 119.455 12.7205C119.124 13.3432 118.962 14.0892 118.962 14.9519V27.1079H114.583V15.1724C114.583 13.7973 114.247 12.727 113.579 11.9551C112.912 11.1896 111.999 10.8004 110.839 10.8004C109.719 10.8004 108.818 11.1831 108.138 11.9551C107.471 12.7205 107.134 13.7194 107.134 14.9519V27.1079H102.703V7.36897H106.59V9.50958C107.153 8.79604 107.846 8.21874 108.669 7.77115C109.751 7.17437 110.962 6.87598 112.303 6.87598C113.774 6.87598 115.004 7.19383 115.989 7.82303C116.87 8.37441 117.557 9.10092 118.036 10.0155C118.658 9.05551 119.467 8.30305 120.478 7.75168C121.547 7.16788 122.739 6.87598 124.054 6.87598C126.23 6.87598 127.902 7.53113 129.055 8.84793C130.227 10.1453 130.81 11.8642 130.81 13.9984Z" fill="#192C6A"/>
<path d="M151.552 18.4544C151.72 16.0933 151.461 14.0371 150.768 12.2986C150.075 10.5602 149.012 9.21095 147.574 8.26391C146.149 7.29738 144.42 6.81738 142.373 6.81738C140.436 6.81738 138.732 7.25847 137.262 8.13418C135.791 9.00988 134.638 10.2488 133.809 11.8446C132.98 13.4273 132.566 15.2954 132.566 17.4556C132.566 19.4534 132.987 21.2177 133.822 22.7551C134.677 24.2924 135.856 25.4924 137.366 26.3553C138.875 27.2245 140.624 27.6526 142.619 27.6526C144.517 27.6526 146.253 27.1595 147.821 26.1736C149.401 25.1876 150.567 23.806 151.325 22.0286L146.985 20.7118C146.557 21.6265 145.949 22.327 145.158 22.8136C144.381 23.287 143.448 23.527 142.366 23.527C140.688 23.527 139.412 22.9757 138.531 21.8794C137.845 21.0167 137.424 19.8751 137.281 18.4609H151.552V18.4544ZM137.391 15.1333C137.592 13.9916 137.974 13.0705 138.538 12.357C139.412 11.2348 140.753 10.677 142.554 10.677C144.148 10.677 145.314 11.1699 146.059 12.1559C146.583 12.8565 146.927 13.8489 147.088 15.1333H137.391Z" fill="#192C6A"/>
<path d="M161.644 27.6527C159.208 27.6527 157.233 27.1013 155.71 26.0051C154.188 24.9088 153.365 23.9423 153.035 21.9509L157.421 20.686C157.654 21.659 158.165 22.4309 158.956 22.9888C159.746 23.5466 160.744 23.8321 161.948 23.8321C163.004 23.8321 163.821 23.6245 164.397 23.2093C164.98 22.7812 165.272 22.204 165.272 21.4709C165.272 21.0233 165.161 20.66 164.941 20.3941C164.734 20.1152 164.274 19.8428 163.555 19.5898C162.836 19.3367 161.735 19.0124 160.251 18.6233C158.6 18.1822 157.284 17.7151 156.306 17.2157C155.335 16.7032 154.635 16.1 154.208 15.4059C153.78 14.7118 153.566 13.8685 153.566 12.8826C153.566 11.6501 153.89 10.5798 154.532 9.66517C155.179 8.75056 156.08 8.04999 157.233 7.5635C158.386 7.06401 159.753 6.81104 161.32 6.81104C162.855 6.81104 164.209 7.05103 165.388 7.52457C166.58 7.99809 167.539 8.6792 168.271 9.5549C169.003 10.4306 169.45 11.462 169.625 12.6426L165.136 13.4469C165.025 12.6036 164.643 11.942 163.982 11.4555C163.335 10.969 162.473 10.6966 161.391 10.6317C160.355 10.5733 159.526 10.729 158.891 11.1052C158.256 11.4685 157.939 11.9874 157.939 12.6555C157.939 13.0318 158.068 13.3561 158.321 13.622C158.574 13.888 159.085 14.1604 159.856 14.4264C160.634 14.6923 161.793 15.0232 163.322 15.4124C164.889 15.8145 166.146 16.2751 167.08 16.8005C168.032 17.3129 168.711 17.9291 169.126 18.6493C169.554 19.3693 169.767 20.2384 169.767 21.2633C169.767 23.2483 169.042 24.8116 167.597 25.9402C166.179 27.0818 164.19 27.6527 161.644 27.6527Z" fill="#192C6A"/>
<path d="M98.292 38.4335C98.0199 38.4335 97.7736 38.3816 97.547 38.2778C97.3267 38.174 97.1453 38.0249 97.0158 37.8238C96.8862 37.6226 96.8214 37.3892 96.8214 37.1038C96.8214 36.8573 96.8668 36.6562 96.964 36.5069C97.061 36.3514 97.1906 36.2281 97.3526 36.1438C97.5146 36.0529 97.6959 35.9881 97.8903 35.9491C98.0911 35.9038 98.2853 35.8712 98.4862 35.8452C98.7453 35.8129 98.9591 35.7869 99.121 35.7676C99.283 35.7481 99.406 35.7157 99.4773 35.6767C99.5551 35.6312 99.5939 35.56 99.5939 35.4497V35.4302C99.5939 35.1512 99.5163 34.9372 99.3672 34.7881C99.2182 34.6324 98.9915 34.561 98.687 34.561C98.3696 34.561 98.1235 34.6324 97.942 34.7686C97.7607 34.9048 97.6376 35.054 97.5663 35.2095L96.9381 34.9826C97.0482 34.7231 97.1971 34.5155 97.385 34.3729C97.5729 34.2236 97.7802 34.1198 98.0004 34.0614C98.2272 34.0031 98.4473 33.9707 98.6611 33.9707C98.7971 33.9707 98.9591 33.9902 99.1339 34.0226C99.3154 34.055 99.4903 34.1198 99.6587 34.2236C99.8272 34.3274 99.9697 34.4767 100.08 34.6776C100.19 34.8788 100.248 35.1512 100.248 35.495V38.3297H99.5875V37.7459H99.5551C99.5096 37.8367 99.4384 37.9405 99.3283 38.0443C99.2247 38.1481 99.0822 38.239 98.9138 38.3168C98.7518 38.3945 98.5381 38.4335 98.292 38.4335ZM98.389 37.8367C98.6482 37.8367 98.8685 37.7849 99.0498 37.6811C99.2311 37.5773 99.3672 37.4476 99.4579 37.2854C99.5487 37.1233 99.6004 36.9545 99.6004 36.7729V36.1697C99.5744 36.2021 99.5096 36.2345 99.4126 36.2605C99.3219 36.2864 99.2118 36.3124 99.0887 36.3319C98.9655 36.3512 98.849 36.3643 98.7325 36.3838C98.6158 36.3967 98.525 36.4097 98.4538 36.4162C98.2789 36.4357 98.1235 36.4745 97.9744 36.5264C97.8255 36.5719 97.7088 36.6497 97.6182 36.7469C97.5275 36.8443 97.4822 36.974 97.4822 37.1426C97.4822 37.3697 97.5663 37.5448 97.7348 37.6616C97.9096 37.7783 98.13 37.8367 98.389 37.8367Z" fill="#192C6A"/>
<path d="M107.496 33.523C107.334 33.2311 107.101 33.004 106.797 32.8354C106.492 32.6668 106.123 32.5825 105.683 32.5825H103.422V38.3232H104.633V36.4615H105.65C106.091 36.4615 106.467 36.3771 106.777 36.2149C107.088 36.0528 107.328 35.8258 107.49 35.5339C107.658 35.242 107.736 34.9047 107.736 34.522C107.736 34.1523 107.658 33.8149 107.496 33.523ZM106.376 35.0344C106.305 35.1771 106.188 35.2873 106.033 35.3718C105.884 35.4496 105.689 35.4949 105.456 35.4949H104.633V33.5814H105.45C105.683 33.5814 105.877 33.6204 106.033 33.7047C106.188 33.7825 106.298 33.8928 106.376 34.0354C106.454 34.1782 106.492 34.3468 106.492 34.5349C106.492 34.723 106.454 34.8916 106.376 35.0344Z" fill="#192C6A"/>
<path d="M109.537 38.4141C109.265 38.4141 109.019 38.3687 108.805 38.2715C108.591 38.1741 108.423 38.0315 108.293 37.8434C108.17 37.6553 108.106 37.4153 108.106 37.1298C108.106 36.8898 108.151 36.6887 108.235 36.5265C108.326 36.3644 108.442 36.2346 108.591 36.1308C108.74 36.0336 108.915 35.9558 109.11 35.9039C109.304 35.852 109.505 35.8194 109.718 35.8001C109.971 35.7741 110.172 35.7482 110.321 35.7287C110.476 35.7027 110.587 35.6703 110.651 35.6249C110.723 35.5794 110.755 35.5082 110.755 35.4172V35.3979C110.755 35.2227 110.697 35.0801 110.587 34.9827C110.476 34.8853 110.321 34.8401 110.114 34.8401C109.9 34.8401 109.725 34.8853 109.602 34.9827C109.472 35.0734 109.388 35.1968 109.349 35.333L108.248 35.2422C108.306 34.9827 108.416 34.7556 108.578 34.561C108.74 34.3665 108.954 34.2237 109.213 34.1199C109.472 34.0163 109.777 33.9644 110.12 33.9644C110.36 33.9644 110.587 33.9903 110.807 34.0487C111.027 34.107 111.221 34.1913 111.39 34.3082C111.565 34.4249 111.694 34.5741 111.798 34.7622C111.895 34.9437 111.947 35.1644 111.947 35.4239V38.3298H110.813V37.7331H110.781C110.709 37.8693 110.619 37.986 110.502 38.0898C110.386 38.1936 110.25 38.2715 110.088 38.3298C109.939 38.3817 109.751 38.4141 109.537 38.4141ZM109.874 37.5903C110.049 37.5903 110.204 37.5579 110.34 37.4865C110.476 37.4153 110.58 37.3179 110.658 37.201C110.735 37.0844 110.774 36.9482 110.774 36.7925V36.3384C110.735 36.3644 110.684 36.3839 110.619 36.4032C110.554 36.4227 110.483 36.4422 110.405 36.4551C110.327 36.4682 110.243 36.4811 110.165 36.4941C110.088 36.507 110.01 36.5136 109.945 36.5265C109.803 36.546 109.68 36.5784 109.576 36.6239C109.472 36.6692 109.388 36.7277 109.33 36.8055C109.271 36.8834 109.246 36.9741 109.246 37.0844C109.246 37.2465 109.304 37.3698 109.42 37.4606C109.544 37.5449 109.692 37.5903 109.874 37.5903Z" fill="#192C6A"/>
<path d="M113.385 39.9449C113.236 39.9449 113.093 39.9319 112.957 39.9059C112.827 39.8866 112.717 39.854 112.633 39.8216L112.899 38.933C113.041 38.9783 113.164 38.9978 113.275 39.0043C113.391 39.0109 113.488 38.9849 113.566 38.9264C113.65 38.8681 113.715 38.7773 113.773 38.6411L113.844 38.4595L112.303 34.0291H113.559L114.447 37.1945H114.492L115.393 34.0291H116.656L114.985 38.8033C114.907 39.0368 114.797 39.2378 114.654 39.4066C114.518 39.5816 114.343 39.7114 114.136 39.8087C113.935 39.8995 113.682 39.9449 113.385 39.9449Z" fill="#192C6A"/>
<path d="M116.728 33.588V32.5891H121.437V33.588H119.681V38.3298H118.483V33.588H116.728Z" fill="#192C6A"/>
<path d="M122.752 38.4141C122.48 38.4141 122.234 38.3687 122.02 38.2715C121.806 38.1741 121.638 38.0315 121.508 37.8434C121.385 37.6553 121.32 37.4153 121.32 37.1298C121.32 36.8898 121.366 36.6887 121.45 36.5265C121.541 36.3644 121.657 36.2346 121.806 36.1308C121.955 36.0336 122.13 35.9558 122.324 35.9039C122.519 35.852 122.72 35.8194 122.933 35.8001C123.186 35.7741 123.387 35.7482 123.536 35.7287C123.691 35.7027 123.801 35.6703 123.866 35.6249C123.937 35.5794 123.97 35.5082 123.97 35.4172V35.3979C123.97 35.2227 123.911 35.0801 123.801 34.9827C123.691 34.8853 123.536 34.8401 123.328 34.8401C123.115 34.8401 122.946 34.8853 122.817 34.9827C122.687 35.0734 122.603 35.1968 122.564 35.333L121.463 35.2422C121.521 34.9827 121.631 34.7556 121.793 34.561C121.955 34.3665 122.169 34.2237 122.428 34.1199C122.687 34.0163 122.992 33.9644 123.335 33.9644C123.575 33.9644 123.801 33.9903 124.022 34.0487C124.242 34.107 124.436 34.1913 124.605 34.3082C124.779 34.4249 124.909 34.5741 125.013 34.7622C125.11 34.9437 125.162 35.1644 125.162 35.4239V38.3298H124.028V37.7331H123.996C123.924 37.8693 123.834 37.986 123.717 38.0898C123.601 38.1936 123.465 38.2715 123.303 38.3298C123.153 38.3817 122.966 38.4141 122.752 38.4141ZM123.095 37.5903C123.27 37.5903 123.425 37.5579 123.562 37.4865C123.698 37.4153 123.801 37.3179 123.879 37.201C123.957 37.0844 123.996 36.9482 123.996 36.7925V36.3384C123.957 36.3644 123.905 36.3839 123.84 36.4032C123.775 36.4227 123.704 36.4422 123.626 36.4551C123.549 36.4682 123.465 36.4811 123.387 36.4941C123.309 36.507 123.231 36.5136 123.166 36.5265C123.024 36.546 122.907 36.5784 122.797 36.6239C122.694 36.6692 122.609 36.7277 122.551 36.8055C122.493 36.8834 122.467 36.9741 122.467 37.0844C122.467 37.2465 122.525 37.3698 122.642 37.4606C122.758 37.5449 122.907 37.5903 123.095 37.5903Z" fill="#192C6A"/>
<path d="M126.043 38.3298V32.5891H127.235V34.7491H127.274C127.326 34.6324 127.403 34.5156 127.501 34.3989C127.604 34.2756 127.734 34.1784 127.896 34.0939C128.058 34.0096 128.258 33.9708 128.498 33.9708C128.809 33.9708 129.101 34.0551 129.366 34.2172C129.632 34.3794 129.846 34.6258 130.001 34.9567C130.156 35.281 130.241 35.6962 130.241 36.1891C130.241 36.6691 130.163 37.0779 130.007 37.4086C129.852 37.7395 129.645 37.986 129.379 38.1546C129.113 38.3233 128.822 38.4076 128.492 38.4076C128.258 38.4076 128.064 38.3686 127.902 38.2909C127.74 38.2131 127.611 38.1157 127.507 37.999C127.403 37.8822 127.326 37.7655 127.274 37.6422H127.222V38.3298H126.043ZM127.209 36.1762C127.209 36.4291 127.241 36.6562 127.313 36.8443C127.384 37.0324 127.488 37.1817 127.624 37.2919C127.76 37.3957 127.922 37.4476 128.116 37.4476C128.31 37.4476 128.472 37.3957 128.608 37.2855C128.744 37.1752 128.841 37.026 128.913 36.8379C128.984 36.6432 129.016 36.4227 129.016 36.1762C129.016 35.9298 128.984 35.7091 128.913 35.521C128.841 35.3329 128.744 35.1838 128.608 35.08C128.472 34.9762 128.31 34.9177 128.109 34.9177C127.915 34.9177 127.753 34.9696 127.617 35.0734C127.488 35.1772 127.384 35.32 127.313 35.5081C127.248 35.6962 127.209 35.9232 127.209 36.1762Z" fill="#192C6A"/>
<path d="M134.534 35.255L133.44 35.32C133.42 35.2291 133.381 35.1448 133.317 35.0669C133.252 34.9891 133.174 34.9307 133.07 34.8852C132.973 34.84 132.85 34.814 132.714 34.814C132.526 34.814 132.371 34.8529 132.248 34.9307C132.118 35.0086 132.06 35.1124 132.06 35.2421C132.06 35.3459 132.099 35.4302 132.183 35.5014C132.267 35.5729 132.403 35.6312 132.604 35.6702L133.381 35.8259C133.802 35.9102 134.113 36.0529 134.314 36.241C134.521 36.429 134.625 36.6821 134.625 36.9935C134.625 37.2788 134.541 37.5254 134.379 37.7395C134.217 37.9535 133.99 38.1157 133.699 38.239C133.414 38.3557 133.083 38.414 132.708 38.414C132.138 38.414 131.684 38.2973 131.347 38.0573C131.01 37.8173 130.816 37.493 130.758 37.0843L131.93 37.0195C131.963 37.1945 132.053 37.3243 132.189 37.4152C132.325 37.5059 132.5 37.5514 132.714 37.5514C132.921 37.5514 133.09 37.5124 133.219 37.4281C133.349 37.3438 133.414 37.24 133.414 37.1102C133.414 37 133.368 36.9157 133.278 36.8443C133.187 36.7729 133.051 36.721 132.863 36.6821L132.118 36.5329C131.697 36.4486 131.386 36.3059 131.179 36.0983C130.978 35.8907 130.874 35.6248 130.874 35.3069C130.874 35.0281 130.952 34.7945 131.101 34.5933C131.25 34.3924 131.464 34.2367 131.736 34.1329C132.008 34.0226 132.332 33.9707 132.701 33.9707C133.245 33.9707 133.673 34.0874 133.984 34.3145C134.295 34.5414 134.482 34.8593 134.534 35.255Z" fill="#192C6A"/>
<path d="M138.797 38.4205C138.395 38.4205 138.045 38.3233 137.754 38.1352C137.462 37.9471 137.235 37.6811 137.08 37.3502C136.925 37.0129 136.847 36.6302 136.847 36.2021C136.847 35.7674 136.925 35.3783 137.087 35.041C137.248 34.7036 137.475 34.4443 137.767 34.2562C138.058 34.0679 138.395 33.9707 138.784 33.9707C139.088 33.9707 139.36 34.0291 139.6 34.1393C139.839 34.2495 140.04 34.4053 140.196 34.6129C140.351 34.8205 140.448 35.0474 140.487 35.32H139.827C139.775 35.1253 139.665 34.9502 139.49 34.801C139.315 34.6453 139.088 34.574 138.797 34.574C138.537 34.574 138.311 34.6388 138.116 34.775C137.922 34.9048 137.773 35.0929 137.663 35.3393C137.559 35.5793 137.501 35.8648 137.501 36.1891C137.501 36.52 137.553 36.8119 137.656 37.0583C137.76 37.3048 137.909 37.4995 138.103 37.6357C138.298 37.7719 138.525 37.8433 138.784 37.8433C138.958 37.8433 139.114 37.8107 139.25 37.7524C139.393 37.694 139.509 37.6097 139.606 37.493C139.703 37.3826 139.775 37.2464 139.814 37.0907H140.474C140.435 37.3438 140.345 37.5707 140.196 37.7783C140.053 37.9795 139.859 38.1416 139.619 38.2583C139.386 38.3621 139.114 38.4205 138.797 38.4205Z" fill="#192C6A"/>
<path d="M143.118 38.4206C142.729 38.4206 142.386 38.3298 142.094 38.1417C141.803 37.9536 141.576 37.7006 141.414 37.3634C141.252 37.0325 141.168 36.6432 141.168 36.1958C141.168 35.7482 141.252 35.3525 141.414 35.0215C141.576 34.6844 141.809 34.4249 142.094 34.2432C142.386 34.0551 142.729 33.9644 143.118 33.9644C143.507 33.9644 143.843 34.0551 144.135 34.2432C144.426 34.4313 144.653 34.6908 144.815 35.0215C144.977 35.3589 145.061 35.7482 145.061 36.1958C145.061 36.6432 144.977 37.0325 144.815 37.3634C144.653 37.6941 144.426 37.9536 144.135 38.1417C143.85 38.3298 143.507 38.4206 143.118 38.4206ZM143.118 37.8239C143.416 37.8239 143.655 37.746 143.843 37.5968C144.031 37.4477 144.174 37.2465 144.264 37.0001C144.355 36.7536 144.4 36.4877 144.4 36.1958C144.4 35.9103 144.355 35.6379 144.264 35.3913C144.174 35.1449 144.031 34.9437 143.843 34.7882C143.655 34.6325 143.409 34.561 143.118 34.561C142.82 34.561 142.58 34.6389 142.392 34.7882C142.205 34.9437 142.062 35.1449 141.971 35.3913C141.881 35.6379 141.835 35.9103 141.835 36.1958C141.835 36.481 141.881 36.7536 141.971 37.0001C142.062 37.2465 142.205 37.4477 142.392 37.5968C142.58 37.7525 142.826 37.8239 143.118 37.8239Z" fill="#192C6A"/>
<path d="M146 38.3298V34.0227H146.641V34.6972H146.7C146.79 34.4703 146.933 34.2887 147.134 34.1589C147.334 34.0291 147.574 33.9644 147.853 33.9644C148.138 33.9644 148.371 34.0291 148.559 34.1589C148.747 34.2887 148.896 34.4637 149.006 34.6972H149.051C149.161 34.4768 149.323 34.2951 149.55 34.1653C149.77 34.0356 150.036 33.9644 150.34 33.9644C150.722 33.9644 151.04 34.0875 151.286 34.3275C151.532 34.5675 151.655 34.9372 151.655 35.4432V38.3234H150.994V35.4432C150.994 35.1253 150.91 34.8984 150.735 34.7622C150.56 34.6258 150.36 34.5546 150.12 34.5546C149.815 34.5546 149.582 34.6453 149.42 34.827C149.252 35.0087 149.174 35.2356 149.174 35.5146V38.3169H148.501V35.3654C148.501 35.1189 148.423 34.9244 148.261 34.7751C148.105 34.6258 147.898 34.5482 147.645 34.5482C147.47 34.5482 147.315 34.5934 147.166 34.6844C147.017 34.7751 146.901 34.9049 146.81 35.067C146.719 35.2292 146.674 35.4108 146.674 35.6249V38.3169H146V38.3298Z" fill="#192C6A"/>
<path d="M152.775 39.945V34.0227H153.417V34.7037H153.494C153.54 34.6258 153.611 34.5351 153.695 34.4184C153.786 34.3015 153.909 34.1977 154.071 34.107C154.233 34.0163 154.46 33.9644 154.738 33.9644C155.101 33.9644 155.418 34.0551 155.697 34.2368C155.975 34.4184 156.189 34.6777 156.345 35.0087C156.5 35.3394 156.578 35.7351 156.578 36.1892C156.578 36.6432 156.5 37.0389 156.345 37.3763C156.189 37.7072 155.975 37.9665 155.703 38.1482C155.431 38.3298 155.114 38.4206 154.751 38.4206C154.473 38.4206 154.252 38.3753 154.09 38.2844C153.922 38.1936 153.799 38.0834 153.708 37.9665C153.618 37.8498 153.553 37.746 153.501 37.6682H153.443V39.945H152.775ZM153.423 36.1763C153.423 36.5006 153.469 36.786 153.566 37.0389C153.663 37.2855 153.799 37.4801 153.98 37.6163C154.162 37.7525 154.388 37.8239 154.654 37.8239C154.932 37.8239 155.159 37.7525 155.347 37.6034C155.535 37.4541 155.671 37.2596 155.768 37.0065C155.865 36.7536 155.911 36.4746 155.911 36.1698C155.911 35.8649 155.865 35.5925 155.768 35.3525C155.677 35.106 155.535 34.9113 155.354 34.7751C155.166 34.6325 154.939 34.5611 154.654 34.5611C154.388 34.5611 154.162 34.6325 153.974 34.7687C153.792 34.9049 153.65 35.093 153.559 35.333C153.469 35.573 153.423 35.8584 153.423 36.1763Z" fill="#192C6A"/>
<path d="M158.767 38.4335C158.495 38.4335 158.249 38.3816 158.022 38.2778C157.802 38.174 157.621 38.0249 157.491 37.8238C157.362 37.6226 157.297 37.3892 157.297 37.1038C157.297 36.8573 157.342 36.6562 157.439 36.5069C157.537 36.3514 157.666 36.2281 157.828 36.1438C157.99 36.0529 158.171 35.9881 158.366 35.9491C158.567 35.9038 158.761 35.8712 158.962 35.8452C159.221 35.8129 159.435 35.7869 159.596 35.7676C159.758 35.7481 159.882 35.7157 159.953 35.6767C160.03 35.6312 160.069 35.56 160.069 35.4497V35.4302C160.069 35.1512 159.992 34.9372 159.843 34.7881C159.694 34.6324 159.467 34.561 159.163 34.561C158.845 34.561 158.599 34.6324 158.418 34.7686C158.236 34.9048 158.113 35.054 158.042 35.2095L157.413 34.9826C157.524 34.7231 157.673 34.5155 157.86 34.3729C158.048 34.2236 158.256 34.1198 158.476 34.0614C158.703 34.0031 158.923 33.9707 159.137 33.9707C159.273 33.9707 159.435 33.9902 159.609 34.0226C159.791 34.055 159.966 34.1198 160.134 34.2236C160.303 34.3274 160.445 34.4767 160.555 34.6776C160.665 34.8788 160.724 35.1512 160.724 35.495V38.3297H160.063V37.7459H160.03C159.985 37.8367 159.914 37.9405 159.804 38.0443C159.7 38.1481 159.558 38.239 159.389 38.3168C159.227 38.3945 159.013 38.4335 158.767 38.4335ZM158.865 37.8367C159.124 37.8367 159.344 37.7849 159.525 37.6811C159.707 37.5773 159.843 37.4476 159.933 37.2854C160.024 37.1233 160.076 36.9545 160.076 36.7729V36.1697C160.05 36.2021 159.985 36.2345 159.888 36.2605C159.797 36.2864 159.687 36.3124 159.564 36.3319C159.441 36.3512 159.324 36.3643 159.208 36.3838C159.091 36.3967 159.001 36.4097 158.929 36.4162C158.754 36.4357 158.599 36.4745 158.45 36.5264C158.301 36.5719 158.184 36.6497 158.094 36.7469C158.003 36.8443 157.958 36.974 157.958 37.1426C157.958 37.3697 158.042 37.5448 158.21 37.6616C158.385 37.7783 158.599 37.8367 158.865 37.8367Z" fill="#192C6A"/>
<path d="M162.525 35.7416V38.3297H161.864V34.0226H162.506V34.6971H162.564C162.668 34.4767 162.817 34.3014 163.024 34.1717C163.231 34.0355 163.497 33.9707 163.821 33.9707C164.112 33.9707 164.365 34.0291 164.585 34.1524C164.805 34.2691 164.974 34.4507 165.097 34.6907C165.22 34.9307 165.278 35.2355 165.278 35.5988V38.3362H164.617V35.6443C164.617 35.3069 164.527 35.041 164.352 34.8529C164.177 34.6648 163.937 34.5674 163.626 34.5674C163.412 34.5674 163.225 34.6129 163.063 34.7036C162.901 34.7945 162.771 34.9307 162.674 35.1059C162.57 35.2745 162.525 35.4886 162.525 35.7416Z" fill="#192C6A"/>
<path d="M166.671 39.945C166.56 39.945 166.456 39.9386 166.372 39.9191C166.282 39.8996 166.223 39.8867 166.192 39.8672L166.36 39.2834C166.522 39.3222 166.664 39.3417 166.787 39.3288C166.911 39.3158 167.02 39.2639 167.117 39.1601C167.215 39.0629 167.306 38.9072 167.383 38.6865L167.506 38.3493L165.912 34.0227H166.631L167.816 37.4541H167.863L169.048 34.0227H169.767L167.94 38.9591C167.856 39.1796 167.758 39.3677 167.636 39.5103C167.512 39.6596 167.37 39.7698 167.215 39.8412C167.046 39.9126 166.864 39.945 166.671 39.945Z" fill="#192C6A"/>
</g>
<defs>
<clipPath id="clip0_1_185">
<rect width="169.256" height="40" fill="white" transform="translate(0.510803)"/>
</clipPath>
</defs>
</svg>
