<svg width="24" height="25" viewBox="0 0 24 25" fill="none" xmlns="http://www.w3.org/2000/svg">
<path d="M12 4.5C11.0717 4.5 10.1815 4.86875 9.52513 5.52513C8.86875 6.1815 8.5 7.07174 8.5 8C8.5 8.92826 8.86875 9.8185 9.52513 10.4749C10.1815 11.1313 11.0717 11.5 12 11.5C12.9283 11.5 13.8185 11.1313 14.4749 10.4749C15.1313 9.8185 15.5 8.92826 15.5 8C15.5 7.07174 15.1313 6.1815 14.4749 5.52513C13.8185 4.86875 12.9283 4.5 12 4.5ZM4.5 7.5C3.83696 7.5 3.20107 7.76339 2.73223 8.23223C2.26339 8.70107 2 9.33696 2 10C2 10.3283 2.06466 10.6534 2.1903 10.9567C2.31594 11.26 2.50009 11.5356 2.73223 11.7678C3.20107 12.2366 3.83696 12.5 4.5 12.5C4.8283 12.5 5.15339 12.4353 5.45671 12.3097C5.76002 12.1841 6.03562 11.9999 6.26777 11.7678C6.49991 11.5356 6.68406 11.26 6.8097 10.9567C6.93534 10.6534 7 10.3283 7 10C7 9.6717 6.93534 9.34661 6.8097 9.04329C6.68406 8.73998 6.49991 8.46438 6.26777 8.23223C6.03562 8.00009 5.76002 7.81594 5.45671 7.6903C5.15339 7.56466 4.8283 7.5 4.5 7.5ZM19.5 7.5C18.837 7.5 18.2011 7.76339 17.7322 8.23223C17.2634 8.70107 17 9.33696 17 10C17 10.3283 17.0647 10.6534 17.1903 10.9567C17.3159 11.26 17.5001 11.5356 17.7322 11.7678C18.2011 12.2366 18.837 12.5 19.5 12.5C19.8283 12.5 20.1534 12.4353 20.4567 12.3097C20.76 12.1841 21.0356 11.9999 21.2678 11.7678C21.4999 11.5356 21.6841 11.26 21.8097 10.9567C21.9353 10.6534 22 10.3283 22 10C22 9.33696 21.7366 8.70107 21.2678 8.23223C20.7989 7.76339 20.163 7.5 19.5 7.5ZM12 13.5C9.664 13.5 5 14.673 5 17V19.5C5 20.052 5.448 20.5 6 20.5H18C18.552 20.5 19 20.052 19 19.5V17C19 14.673 14.336 13.5 12 13.5ZM3.89844 14.5527C2.31744 14.7967 0 15.8891 0 17.2051V19.5C0 20.052 0.448 20.5 1 20.5H3V17C3 16.039 3.34544 15.2327 3.89844 14.5527ZM20.1016 14.5527C20.6546 15.2327 21 16.039 21 17V20.5H23C23.552 20.5 24 20.052 24 19.5V17.2051C24 15.8891 21.6826 14.7967 20.1016 14.5527Z" fill="#1E9AF1"/>
</svg>
