<svg width="24" height="25" viewBox="0 0 24 25" fill="none" xmlns="http://www.w3.org/2000/svg">
<path d="M20.3574 2.97892C20.2188 2.96624 20.0787 2.96893 19.9375 2.98868C17.6498 3.30962 12.7349 4.01676 7.6992 9.9711H5.61717C5.27017 9.9711 4.93825 10.1137 4.69725 10.3637L2.39842 12.7563C2.02642 13.1283 1.91517 13.6833 2.11717 14.1703C2.31817 14.6573 2.78939 14.9711 3.31639 14.9711H5.77537C5.44409 15.3453 5.27007 15.7433 5.08397 16.1957C4.87791 16.6966 4.69639 17.2489 4.541 17.7719C4.23022 18.8178 4.02342 19.7543 4.02342 19.7543C3.98689 19.9186 3.9924 20.0894 4.03943 20.251C4.08646 20.4125 4.17351 20.5596 4.29249 20.6786C4.41148 20.7976 4.55856 20.8846 4.72013 20.9317C4.8817 20.9787 5.05252 20.9842 5.21678 20.9477C5.21678 20.9477 6.15327 20.7409 7.1992 20.4301C7.72217 20.2747 8.2745 20.0932 8.77537 19.8871C9.22776 19.701 9.62578 19.527 9.99998 19.1957V21.6547C9.99998 22.1817 10.3138 22.6539 10.8008 22.8539C10.9658 22.9229 11.1376 22.9535 11.3066 22.9535C11.6376 22.9535 11.9576 22.8309 12.1816 22.6059L14.582 20.4184C14.848 20.1764 15 19.834 15 19.475V17.2719C20.9519 12.2368 21.6606 7.32119 21.9824 5.0336C22.0614 4.4656 21.8757 3.90735 21.4707 3.50235C21.1662 3.19785 20.7731 3.01693 20.3574 2.97892ZM16.5 6.9711C17.328 6.9711 18 7.6431 18 8.4711C18 9.2991 17.328 9.9711 16.5 9.9711C15.672 9.9711 15 9.2991 15 8.4711C15 7.6431 15.672 6.9711 16.5 6.9711ZM12.5 10.9711C13.328 10.9711 14 11.6431 14 12.4711C14 13.2991 13.328 13.9711 12.5 13.9711C11.672 13.9711 11 13.2991 11 12.4711C11 11.6431 11.672 10.9711 12.5 10.9711ZM7.64061 15.9164L9.05467 17.3305L8.70701 17.6781C8.72513 17.66 8.41362 17.873 8.01365 18.0375C7.61369 18.2021 7.1118 18.3686 6.62889 18.5121C6.50825 18.548 6.51483 18.5399 6.39842 18.5727C6.43121 18.4563 6.42312 18.4628 6.45897 18.3422C6.60245 17.8593 6.76903 17.3574 6.93358 16.9574C7.09812 16.5575 7.31107 16.246 7.29295 16.2641L7.64061 15.9164Z" fill="white"/>
</svg>
