<svg width="50" height="50" viewBox="0 0 50 50" fill="none" xmlns="http://www.w3.org/2000/svg">
<path d="M6.77051 33.333C5.90801 33.333 5.20801 34.033 5.20801 34.8955C5.20801 35.758 5.90801 36.458 6.77051 36.458C7.63301 36.458 8.33301 35.758 8.33301 34.8955C8.33301 34.033 7.63301 33.333 6.77051 33.333Z" fill="#199BE2"/>
<path d="M26.0393 29.1667L20.4955 25.375L15.5393 31.7333L6.77051 33.3333V36.4583L15.9101 36.649C16.3976 36.6594 16.8736 36.4979 17.2549 36.1927L26.0393 29.1667Z" fill="#199BE2"/>
<path d="M41.1455 26.042C42.0085 26.042 42.708 25.3424 42.708 24.4795C42.708 23.6165 42.0085 22.917 41.1455 22.917C40.2826 22.917 39.583 23.6165 39.583 24.4795C39.583 25.3424 40.2826 26.042 41.1455 26.042Z" fill="#199BE2"/>
<path d="M41.1459 26.0419H34.3584C33.7907 26.0419 33.248 25.8107 32.8553 25.4013L27.499 19.8221L30.7865 15.543L35.3574 22.1982L41.1459 22.9169V26.0419Z" fill="#199BE2"/>
<path d="M30.208 8.33366C30.208 10.6337 32.0726 12.5003 34.3726 12.5003C36.6778 12.5003 38.5413 10.6337 38.5413 8.33366C38.5413 6.03366 36.6778 4.16699 34.3726 4.16699C32.0726 4.16699 30.208 6.03366 30.208 8.33366Z" fill="url(#paint0_linear_1940_79749)"/>
<path d="M23.958 16.6667C23.958 18.9667 25.8226 20.8333 28.1226 20.8333C30.4278 20.8333 32.2913 18.9667 32.2913 16.6667C32.2913 14.3667 30.4278 12.5 28.1226 12.5C25.8226 12.5 23.958 14.3667 23.958 16.6667Z" fill="#35C1F1"/>
<path d="M18.75 26.0417C18.75 28.3417 20.6146 30.2083 22.9146 30.2083C25.2198 30.2083 27.0833 28.3417 27.0833 26.0417C27.0833 23.7417 25.2198 21.875 22.9146 21.875C20.6146 21.875 18.75 23.7417 18.75 26.0417Z" fill="#35C1F1"/>
<path d="M29.6875 42.708C28.825 42.708 28.125 43.408 28.125 44.2705C28.125 45.133 28.825 45.833 29.6875 45.833C30.55 45.833 31.25 45.133 31.25 44.2705C31.25 43.408 30.55 42.708 29.6875 42.708Z" fill="#35C1F1"/>
<path d="M31.8654 18.5056L24.7623 14.4316L19.1748 24.2098L19.83 28.8379L25.9363 34.9181L28.1779 44.6744L31.2456 44.166L30.58 33.5368C30.5633 33.2702 30.4956 33.0098 30.3811 32.7691L27.4019 26.5316L31.8654 18.5056Z" fill="#35C1F1"/>
<path d="M11.9795 17.708C11.117 17.708 10.417 18.408 10.417 19.2705C10.417 20.133 11.117 20.833 11.9795 20.833C12.842 20.833 13.542 20.133 13.542 19.2705C13.542 18.408 12.842 17.708 11.9795 17.708Z" fill="#35C1F1"/>
<path d="M28.1232 12.5H18.9337C18.4743 12.5 18.0274 12.6521 17.6639 12.9323L10.9482 18.0969L12.7722 20.6156L19.1753 16.8698L27.2201 17.326L28.1232 12.5Z" fill="#35C1F1"/>
<defs>
<linearGradient id="paint0_linear_1940_79749" x1="30.208" y1="8.33366" x2="38.5413" y2="8.33366" gradientUnits="userSpaceOnUse">
<stop stop-color="#FFCF54"/>
<stop offset="0.261" stop-color="#FDCB4D"/>
<stop offset="0.639" stop-color="#F7C13A"/>
<stop offset="1" stop-color="#F0B421"/>
</linearGradient>
</defs>
</svg>
