<svg width="50" height="50" viewBox="0 0 50 50" fill="none" xmlns="http://www.w3.org/2000/svg">
<path d="M43.2295 25C44.0924 25 44.792 24.3004 44.792 23.4375C44.792 22.5746 44.0924 21.875 43.2295 21.875C42.3665 21.875 41.667 22.5746 41.667 23.4375C41.667 24.3004 42.3665 25 43.2295 25Z" fill="#199BE2"/>
<path d="M43.2293 24.9997H36.2199C35.6116 24.9997 35.0585 24.6465 34.8022 24.0945L32.0918 18.2538L35.7105 14.9424L37.5126 21.1663L43.2293 21.8747V24.9997Z" fill="#199BE2"/>
<path d="M16.1455 32.292C15.283 32.292 14.583 32.992 14.583 33.8545C14.583 34.717 15.283 35.417 16.1455 35.417C17.008 35.417 17.708 34.717 17.708 33.8545C17.708 32.992 17.008 32.292 16.1455 32.292Z" fill="#35C1F1"/>
<path d="M29.6872 30.208C28.2486 30.208 27.083 31.3736 27.083 32.8122C27.083 34.2507 28.2486 35.4163 29.6872 35.4163C31.1257 35.4163 32.2913 34.2507 32.2913 32.8122C32.2913 31.3736 31.1257 30.208 29.6872 30.208Z" fill="#35C1F1"/>
<path d="M40.6247 13.5413C42.9259 13.5413 44.7913 11.6759 44.7913 9.37467C44.7913 7.07349 42.9259 5.20801 40.6247 5.20801C38.3235 5.20801 36.458 7.07349 36.458 9.37467C36.458 11.6759 38.3235 13.5413 40.6247 13.5413Z" fill="url(#paint0_linear_1940_79733)"/>
<path d="M32.2917 19.7913C34.5929 19.7913 36.4583 17.9259 36.4583 15.6247C36.4583 13.3235 34.5929 11.458 32.2917 11.458C29.9905 11.458 28.125 13.3235 28.125 15.6247C28.125 17.9259 29.9905 19.7913 32.2917 19.7913Z" fill="#35C1F1"/>
<path d="M24.9997 27.0833C27.3009 27.0833 29.1663 25.2179 29.1663 22.9167C29.1663 20.6155 27.3009 18.75 24.9997 18.75C22.6985 18.75 20.833 20.6155 20.833 22.9167C20.833 25.2179 22.6985 27.0833 24.9997 27.0833Z" fill="#35C1F1"/>
<path d="M25.3007 33.333L20.9434 42.6518L23.6736 44.1257L30.5902 33.4038L25.3007 33.333Z" fill="#199BE2"/>
<path d="M22.3955 44.792C23.2585 44.792 23.958 44.0924 23.958 43.2295C23.958 42.3665 23.2585 41.667 22.3955 41.667C21.5326 41.667 20.833 42.3665 20.833 43.2295C20.833 44.0924 21.5326 44.792 22.3955 44.792Z" fill="#199BE2"/>
<path d="M18.2295 9.375C17.367 9.375 16.667 10.075 16.667 10.9375C16.667 11.8 17.367 12.5 18.2295 12.5C19.092 12.5 19.792 11.8 19.792 10.9375C19.792 10.075 19.092 9.375 18.2295 9.375Z" fill="#35C1F1"/>
<path d="M27.0833 6.25C25.9323 6.25 25 7.18229 25 8.33333C25 9.48438 25.9323 10.4167 27.0833 10.4167C28.2344 10.4167 29.1667 9.48438 29.1667 8.33333C29.1667 7.18229 28.2344 6.25 27.0833 6.25Z" fill="#35C1F1"/>
<path d="M28.884 24.907L35.0455 18.7497L34.858 12.3445L28.3632 6.69447L26.4018 6.36426L17.6132 9.50072L18.5288 12.4705L26.4236 10.5861L28.7351 13.2038L21.9757 20.0518L21.5049 25.184L25.9059 31.1434L16.1455 32.2913V35.4163H29.6872L31.8965 31.4372L28.884 24.907Z" fill="#35C1F1"/>
<path d="M14.583 20.833C14.3893 20.833 6.44342 20.833 6.24967 20.833C5.67467 20.833 5.20801 21.2997 5.20801 21.8747C5.20801 22.4497 5.67467 22.9163 6.24967 22.9163C6.44342 22.9163 14.3893 22.9163 14.583 22.9163C15.158 22.9163 15.6247 22.4497 15.6247 21.8747C15.6247 21.2997 15.158 20.833 14.583 20.833Z" fill="#0D62AB"/>
<path d="M17.7087 15.625C17.5149 15.625 8.52741 15.625 8.33366 15.625C7.75866 15.625 7.29199 16.0917 7.29199 16.6667C7.29199 17.2417 7.75866 17.7083 8.33366 17.7083C8.52741 17.7083 17.5149 17.7083 17.7087 17.7083C18.2837 17.7083 18.7503 17.2417 18.7503 16.6667C18.7503 16.0917 18.2837 15.625 17.7087 15.625Z" fill="#0D62AB"/>
<path d="M15.6253 26.042C15.4316 26.042 8.52741 26.042 8.33366 26.042C7.75866 26.042 7.29199 26.5087 7.29199 27.0837C7.29199 27.6587 7.75866 28.1253 8.33366 28.1253C8.52741 28.1253 15.4316 28.1253 15.6253 28.1253C16.2003 28.1253 16.667 27.6587 16.667 27.0837C16.667 26.5087 16.2003 26.042 15.6253 26.042Z" fill="#0D62AB"/>
<defs>
<linearGradient id="paint0_linear_1940_79733" x1="36.458" y1="9.37467" x2="44.7913" y2="9.37467" gradientUnits="userSpaceOnUse">
<stop stop-color="#FFCF54"/>
<stop offset="0.261" stop-color="#FDCB4D"/>
<stop offset="0.639" stop-color="#F7C13A"/>
<stop offset="1" stop-color="#F0B421"/>
</linearGradient>
</defs>
</svg>
