<svg width="153" height="40" viewBox="0 0 153 40" fill="none" xmlns="http://www.w3.org/2000/svg">
<g clip-path="url(#clip0_1_154)">
<path d="M35.7467 35.5999H24.4196V33.4333H33.5813V25.0667H35.7467V35.5999Z" fill="#11C7F2"/>
<path d="M35.7467 13.9666H33.5813V6.2833H24.4196V4.1333H35.7467V13.9666Z" fill="#11C7F2"/>
<path d="M6.44631 15.3H4.29749V4.1333H15.6246V6.2833H6.44631V15.3Z" fill="#11C7F2"/>
<path d="M15.6246 35.5999H4.29749V24.3999H6.44631V33.4332H15.6246V35.5999Z" fill="#11C7F2"/>
<path d="M20.0219 39.9999C16.9903 39.9999 14.5416 37.5499 14.5416 34.5166C14.5416 31.4832 16.9903 29.0332 20.0219 29.0332C23.0536 29.0332 25.5022 31.4832 25.5022 34.5166C25.4856 37.5499 23.0369 39.9999 20.0219 39.9999ZM20.0219 31.1999C18.1896 31.1999 16.7071 32.6832 16.7071 34.5166C16.7071 36.3499 18.1896 37.8332 20.0219 37.8332C21.8543 37.8332 23.3368 36.3499 23.3368 34.5166C23.3368 32.6832 21.8543 31.1999 20.0219 31.1999Z" fill="#11C7F2"/>
<path d="M10.594 24.9501H0.233032V14.5835H10.594V24.9501ZM2.39851 22.8001H8.42854V16.7501H2.39851V22.8001Z" fill="#11C7F2"/>
<path d="M34.7811 27.1L27.4518 19.7833L34.7811 12.45L42.0937 19.7833L34.7811 27.1ZM30.5167 19.7666L34.7811 24.0333L39.0454 19.7666L34.7811 15.5L30.5167 19.7666Z" fill="#11C7F2"/>
<path d="M23.0709 10.4167H17.0575L14.0592 5.2L17.0742 0H23.0876L26.0859 5.2L23.0709 10.4167ZM18.3068 8.26667H21.8216L23.5873 5.21667L21.8382 2.16667H18.3235L16.5578 5.2L18.3068 8.26667Z" fill="#11C7F2"/>
<path d="M26.4024 25.6667H24.57C24.2369 25.6667 23.9537 25.3833 23.9537 25.05C23.9537 24.7167 24.2369 24.4333 24.57 24.4333H26.4024C26.7355 24.4333 27.0187 24.7167 27.0187 25.05C27.0187 25.3833 26.7522 25.6667 26.4024 25.6667Z" fill="#11C7F2"/>
<path d="M15.5748 15.2499H13.3094C12.9762 15.2499 12.6931 14.9666 12.6931 14.6333C12.6931 14.2999 12.9762 14.0166 13.3094 14.0166H15.5748C15.908 14.0166 16.1911 14.2999 16.1911 14.6333C16.1911 14.9666 15.908 15.2499 15.5748 15.2499Z" fill="#11C7F2"/>
<path d="M26.4024 15.2499H18.4901C18.1569 15.2499 17.8737 14.9666 17.8737 14.6333C17.8737 14.2999 18.1569 14.0166 18.4901 14.0166H26.4024C26.7355 14.0166 27.0187 14.2999 27.0187 14.6333C27.0187 14.9666 26.7522 15.2499 26.4024 15.2499Z" fill="#11C7F2"/>
<path d="M26.4025 18.9333H21.3553C21.0221 18.9333 20.739 18.65 20.739 18.3166C20.739 17.9833 21.0221 17.7 21.3553 17.7H26.4192C26.7523 17.7 27.0355 17.9833 27.0355 18.3166C27.0355 18.65 26.7523 18.9333 26.4025 18.9333Z" fill="#11C7F2"/>
<path d="M18.29 18.9333H13.3094C12.9762 18.9333 12.6931 18.65 12.6931 18.3166C12.6931 17.9833 12.9762 17.7 13.3094 17.7H18.29C18.6231 17.7 18.9063 17.9833 18.9063 18.3166C18.9063 18.65 18.6398 18.9333 18.29 18.9333Z" fill="#11C7F2"/>
<path d="M22.3374 22.3H18.0064C17.6733 22.3167 17.3734 22.05 17.3568 21.7167C17.3401 21.3833 17.6067 21.0833 17.9398 21.0667C17.9565 21.0667 17.9898 21.0667 18.0064 21.0667H22.3374C22.6705 21.05 22.9704 21.3167 22.987 21.65C23.0037 21.9833 22.7372 22.2833 22.404 22.3C22.3874 22.3 22.354 22.3 22.3374 22.3Z" fill="#11C7F2"/>
<path d="M18.6065 25.6667H13.3094C12.9762 25.6667 12.6931 25.3833 12.6931 25.05C12.6931 24.7167 12.9762 24.4333 13.3094 24.4333H18.6065C18.9396 24.4333 19.2228 24.7167 19.2228 25.05C19.2228 25.3833 18.9563 25.6667 18.6065 25.6667Z" fill="#11C7F2"/>
<path d="M22.1549 25.6667H21.3387C21.0055 25.6667 20.7224 25.3833 20.7224 25.05C20.7224 24.7167 21.0055 24.4333 21.3387 24.4333H22.1549C22.4881 24.4333 22.7712 24.7167 22.7712 25.05C22.7712 25.3833 22.4881 25.6667 22.1549 25.6667Z" fill="#11C7F2"/>
<path d="M15.3747 22.3H13.3092C12.976 22.3167 12.6762 22.05 12.6595 21.7167C12.6429 21.3833 12.9094 21.0833 13.2425 21.0667C13.2592 21.0667 13.2925 21.0667 13.3092 21.0667H15.3747C15.7079 21.05 16.0077 21.3167 16.0243 21.65C16.041 21.9833 15.7745 22.2833 15.4413 22.3C15.408 22.3 15.3914 22.3 15.3747 22.3Z" fill="#11C7F2"/>
<path d="M26.4016 22.3H25.0357C24.7026 22.3167 24.4027 22.05 24.3861 21.7167C24.3694 21.3833 24.6359 21.0833 24.9691 21.0667C24.9858 21.0667 25.0191 21.0667 25.0357 21.0667H26.4016C26.7348 21.05 27.0346 21.3167 27.0513 21.65C27.0679 21.9833 26.8014 22.2833 26.4683 22.3C26.4516 22.3 26.435 22.3 26.4016 22.3Z" fill="#11C7F2"/>
<path d="M63.2652 7.34989H58.1513V19.0499H54.4534V7.34989H49.3228V3.96655H63.2652V7.34989Z" fill="black"/>
<path d="M63.8151 3.96655H75.7419V7.24989H67.5298V10.0832H75.4421V12.8999H67.5298V15.7499H75.7253V19.0332H63.8151V3.96655Z" fill="black"/>
<path d="M76.6412 11.5167C76.6412 6.75006 79.7562 3.4834 84.287 3.4834C87.4519 3.4834 90.6668 4.9834 91.2665 9.65007H87.7351C87.2021 7.80007 85.9361 6.9834 84.287 6.9834C82.0549 6.9834 80.3392 8.8334 80.3392 11.5167C80.3392 14.2001 82.0549 16.0501 84.287 16.0501C85.9361 16.0501 87.2021 15.2001 87.7351 13.3334H91.2665C90.6502 18.0167 87.4686 19.5501 84.287 19.5501C79.7395 19.5501 76.6412 16.2667 76.6412 11.5167Z" fill="black"/>
<path d="M106.358 3.96655V19.0332H102.644V13.1999H96.2806V19.0499H92.566V3.96655H96.2806V9.81655H102.644V3.96655H106.358Z" fill="black"/>
<path d="M60.0341 33.3666H53.521L52.7548 35.7166H48.9235L54.1873 20.6499H59.3845L64.6482 35.7166H60.817L60.0341 33.3666ZM59.0513 30.3333L57.119 24.4499H56.4527L54.5038 30.3333H59.0513Z" fill="black"/>
<path d="M63.7653 28.1833C63.7653 23.4166 66.8803 20.1499 71.4111 20.1499C74.5761 20.1499 77.791 21.6499 78.3906 26.3166H74.8426C74.3095 24.4666 73.0436 23.6499 71.3945 23.6499C69.1624 23.6499 67.4466 25.4999 67.4466 28.1833C67.4466 30.8666 69.1624 32.7166 71.3945 32.7166C73.0436 32.7166 74.3095 31.8666 74.8426 29.9999H78.3906C77.7743 34.6833 74.5927 36.2166 71.4111 36.2166C66.8803 36.2166 63.7653 32.9333 63.7653 28.1833Z" fill="black"/>
<path d="M88.5516 33.3666H82.0385L81.2722 35.7166H77.441L82.7048 20.6499H87.9019L93.1657 35.7166H89.3345L88.5516 33.3666ZM87.5688 30.3333L85.6365 24.4499H84.9536L83.0213 30.3333H87.5688Z" fill="black"/>
<path d="M107.024 28.1833C107.024 32.4666 105.009 35.7166 99.545 35.7166H92.9986V20.65H99.545C105.025 20.6333 107.024 23.8666 107.024 28.1833ZM103.31 28.1833C103.31 25.4333 101.944 24.0333 99.5617 24.0333H96.7466L96.7299 32.3H99.5617C101.944 32.3 103.31 30.9 103.31 28.1833Z" fill="black"/>
<path d="M108.59 20.6333H120.517V23.9166H112.322V26.75H120.234V29.5666H112.322V32.4166H120.517V35.7H108.59V20.6333Z" fill="black"/>
<path d="M121.584 20.6333H126.314L129.346 30.5333H129.629L132.661 20.6333H137.392V35.7H133.844V27.4333H133.527L130.928 35.7H128.08L125.481 27.4333H125.165V35.7H121.6V20.6333H121.584Z" fill="black"/>
<path d="M146.536 30.9334V35.7H142.821V30.9L137.125 20.6167H141.056L144.504 27H144.854L148.318 20.6167H152.233L146.536 30.9334Z" fill="black"/>
</g>
<defs>
<clipPath id="clip0_1_154">
<rect width="152" height="40" fill="white" transform="translate(0.233032)"/>
</clipPath>
</defs>
</svg>
