<svg width="50" height="50" viewBox="0 0 50 50" fill="none" xmlns="http://www.w3.org/2000/svg">
<path d="M16.1455 42.708C15.283 42.708 14.583 43.408 14.583 44.2705C14.583 45.133 15.283 45.833 16.1455 45.833C17.008 45.833 17.708 45.133 17.708 44.2705C17.708 43.408 17.008 42.708 16.1455 42.708Z" fill="#199BE2"/>
<path d="M26.0188 29.8383L19.4719 27.5508L18.5334 34.607L14.7178 43.6372L17.4167 45.1799L22.6459 36.4279L26.0188 29.8383Z" fill="#199BE2"/>
<path d="M35.9375 28.125C36.8004 28.125 37.5 27.4254 37.5 26.5625C37.5 25.6996 36.8004 25 35.9375 25C35.0746 25 34.375 25.6996 34.375 26.5625C34.375 27.4254 35.0746 28.125 35.9375 28.125Z" fill="#199BE2"/>
<path d="M35.3657 28.0168L29.0594 25.6199C28.8001 25.521 28.5626 25.371 28.3615 25.1793L24.9365 21.9095L26.749 17.0762L30.4407 22.2335L36.5751 25.1355L35.3657 28.0168Z" fill="#199BE2"/>
<path d="M21.875 8.33366C21.875 10.6337 23.7396 12.5003 26.0396 12.5003C28.3448 12.5003 30.2083 10.6337 30.2083 8.33366C30.2083 6.03366 28.3448 4.16699 26.0396 4.16699C23.7396 4.16699 21.875 6.03366 21.875 8.33366Z" fill="url(#paint0_linear_1940_79721)"/>
<path d="M19.792 18.7497C19.792 21.0497 21.6566 22.9163 23.9566 22.9163C26.2618 22.9163 28.1253 21.0497 28.1253 18.7497C28.1253 16.4497 26.2618 14.583 23.9566 14.583C21.6566 14.583 19.792 16.4497 19.792 18.7497Z" fill="#35C1F1"/>
<path d="M18.75 28.1247C18.75 30.4247 20.6146 32.2913 22.9146 32.2913C25.2198 32.2913 27.0833 30.4247 27.0833 28.1247C27.0833 25.8247 25.2198 23.958 22.9146 23.958C20.6146 23.958 18.75 25.8247 18.75 28.1247Z" fill="#35C1F1"/>
<path d="M31.7705 42.708C30.908 42.708 30.208 43.408 30.208 44.2705C30.208 45.133 30.908 45.833 31.7705 45.833C32.633 45.833 33.333 45.133 33.333 44.2705C33.333 43.408 32.633 42.708 31.7705 42.708Z" fill="#35C1F1"/>
<path d="M10.9375 25C10.075 25 9.375 25.7 9.375 26.5625C9.375 27.425 10.075 28.125 10.9375 28.125C11.8 28.125 12.5 27.425 12.5 26.5625C12.5 25.7 11.8 25 10.9375 25Z" fill="#35C1F1"/>
<path d="M28.0736 19.4042L19.8173 18.2812L18.7871 27.6229L20.4361 31.4719L26.2215 36.3656L30.3277 44.8698L33.2507 43.7823L30.61 34.5385C30.559 34.3583 30.4829 34.1854 30.385 34.025L27.0579 28.575L28.0736 19.4042Z" fill="#35C1F1"/>
<path d="M22.3594 14.8789L14.6531 18.3081C14.2719 18.4779 13.951 18.7581 13.7302 19.1122L9.5625 25.8185L12.2406 27.4195L16.3906 22.3258L23.4167 20.0029L22.3594 14.8789Z" fill="#35C1F1"/>
<defs>
<linearGradient id="paint0_linear_1940_79721" x1="21.875" y1="8.33366" x2="30.2083" y2="8.33366" gradientUnits="userSpaceOnUse">
<stop stop-color="#FFCF54"/>
<stop offset="0.261" stop-color="#FDCB4D"/>
<stop offset="0.639" stop-color="#F7C13A"/>
<stop offset="1" stop-color="#F0B421"/>
</linearGradient>
</defs>
</svg>
