<svg width="25" height="24" viewBox="0 0 25 24" fill="none" xmlns="http://www.w3.org/2000/svg">
<path d="M22.082 6.186C21.852 5.326 21.174 4.648 20.314 4.418C18.754 4 12.5 4 12.5 4C12.5 4 6.246 4 4.686 4.418C3.826 4.648 3.148 5.326 2.918 6.186C2.5 7.746 2.5 12 2.5 12C2.5 12 2.5 16.254 2.918 17.814C3.148 18.674 3.826 19.352 4.686 19.582C6.246 20 12.5 20 12.5 20C12.5 20 18.754 20 20.314 19.582C21.175 19.352 21.852 18.674 22.082 17.814C22.5 16.254 22.5 12 22.5 12C22.5 12 22.5 7.746 22.082 6.186ZM10.5 14.598V9.402C10.5 9.017 10.917 8.777 11.25 8.969L15.75 11.567C16.083 11.759 16.083 12.241 15.75 12.433L11.25 15.031C10.917 15.224 10.5 14.983 10.5 14.598Z" fill="black"/>
</svg>
