<svg width="77" height="32" viewBox="0 0 77 32" fill="none" xmlns="http://www.w3.org/2000/svg">
<g clip-path="url(#clip0_334_463)">
<path d="M72.6018 31.0531L61.3419 0.0204777L61.3341 0H61.1119L58.7932 6.37712L54.572 17.9867L54.5621 17.9775C53.099 16.6853 51.035 15.8775 48.4355 15.5767L47.6426 15.4948L48.4292 15.3938C52.716 14.6227 55.5977 11.9125 55.5977 8.64736C55.5977 4.16974 51.3905 1.04438 45.3641 1.04438H32.8252V1.27105H36.4687V24.4076L27.6199 0.0204777L27.6122 0H27.39L25.0712 6.37712L16.1279 30.9733L16.0729 30.9796C15.92 30.9985 15.7688 31.0135 15.6193 31.0248C15.3943 31.0425 15.1707 31.0531 14.9463 31.0531H5.90988L23.0869 1.27104L23.2146 1.0472H2.20641V10.2602H2.42933C2.46883 5.77267 5.0796 1.27105 10.8478 1.27105H17.8068L0.5 31.2762H23.8156V22.4495H23.5927C23.5623 26.3608 21.3473 30.0758 16.5307 30.9147L16.3776 30.9408L20.0458 20.848H30.3217L34.0245 31.0531H30.3718V31.2762H44.7081V31.0531H41.0399V15.6593H45.2724C49.5797 15.6593 52.0501 17.5856 52.0501 20.9426V23.6732C52.0501 23.9741 52.0705 24.414 52.0931 24.7819V24.7953L49.8181 31.0517H46.8462V31.2748H52.9982V31.0517H50.058L52.1298 25.3545C52.134 25.4096 52.1362 25.4428 52.1362 25.4428L52.1933 25.9562L52.2483 26.2958C52.594 28.3966 53.3967 29.9409 54.6333 30.8857L54.8111 31.0149C55.7507 31.6688 56.9182 32 58.2832 32C60.0912 32 61.2967 31.5488 62.2921 30.4868L62.1616 30.3639C61.2445 31.2112 60.4749 31.5544 59.5106 31.5544C57.8677 31.5544 57.0078 29.5596 57.0078 27.5923V23.7664C57.0165 22.8171 56.868 21.8729 56.5683 20.9723L56.5274 20.8536V20.8494H64.0437L67.7464 31.0545H64.0938V31.2776H76.5V31.0545L72.6018 31.0531ZM20.1276 20.6248L25.1898 6.70336L30.2406 20.6248H20.1276ZM41.042 15.4354V1.27105H44.2728C48.5886 1.27105 50.8671 3.83927 50.8671 8.69537C50.8671 13.8601 49.5592 15.4354 45.2724 15.4354H41.042ZM56.4399 20.6248L56.4181 20.5698C56.084 19.7554 55.5978 19.0125 54.9853 18.3807L54.7737 18.1689L54.7511 18.1477L58.9089 6.70336L63.9597 20.6248H56.4399Z" fill="black"/>
</g>
<defs>
<clipPath id="clip0_334_463">
<rect width="76" height="32" fill="white" transform="translate(0.5)"/>
</clipPath>
</defs>
</svg>
